<mxfile host="app.diagrams.net" modified="2021-04-01T08:42:08.573Z" agent="5.0 (Windows)" etag="j30z6aWED37wDAng5qnY" version="14.5.4" type="github">
  <diagram id="FebOfwHOUY9Ds5WRyvJx" name="Page-1">
    <mxGraphModel dx="1360" dy="831" grid="1" gridSize="10" guides="1" tooltips="1" connect="1" arrows="1" fold="1" page="1" pageScale="1" pageWidth="827" pageHeight="1169" math="0" shadow="0">
      <root>
        <mxCell id="0" />
        <mxCell id="1" parent="0" />
        <mxCell id="WmbmlH8agjgIe5NI6Qsj-1" value="" style="ellipse;html=1;shape=startState;fillColor=#000000;strokeColor=#ff0000;" vertex="1" parent="1">
          <mxGeometry x="350" y="90" width="30" height="30" as="geometry" />
        </mxCell>
        <mxCell id="WmbmlH8agjgIe5NI6Qsj-2" value="" style="edgeStyle=orthogonalEdgeStyle;html=1;verticalAlign=bottom;endArrow=open;endSize=8;strokeColor=#ff0000;" edge="1" source="WmbmlH8agjgIe5NI6Qsj-1" parent="1">
          <mxGeometry relative="1" as="geometry">
            <mxPoint x="365" y="180" as="targetPoint" />
          </mxGeometry>
        </mxCell>
        <mxCell id="WmbmlH8agjgIe5NI6Qsj-4" value="PumpState" style="shape=folder;align=center;verticalAlign=middle;fontStyle=0;tabWidth=100;tabHeight=30;tabPosition=left;html=1;boundedLbl=1;labelInHeader=1;rounded=1;absoluteArcSize=1;arcSize=10;" vertex="1" parent="1">
          <mxGeometry x="180" y="240" width="540" height="230" as="geometry" />
        </mxCell>
        <mxCell id="WmbmlH8agjgIe5NI6Qsj-5" value="State" style="html=1;align=center;verticalAlign=top;rounded=1;absoluteArcSize=1;arcSize=10;dashed=0;" vertex="1" parent="1">
          <mxGeometry x="350" y="335" width="140" height="40" as="geometry" />
        </mxCell>
      </root>
    </mxGraphModel>
  </diagram>
</mxfile>
